<svg id="visual" viewBox="0 0 900 600" width="900" height="600" xmlns="http://www.w3.org/2000/svg" xmlns:xlink="http://www.w3.org/1999/xlink" version="1.1"><rect x="0" y="0" width="900" height="600" fill="#000000"></rect><path d="M0 349L11.5 353.8C23 358.7 46 368.3 69 379.3C92 390.3 115 402.7 138.2 404.2C161.3 405.7 184.7 396.3 207.8 396.8C231 397.3 254 407.7 277 413.5C300 419.3 323 420.7 346 411.5C369 402.3 392 382.7 415.2 382.5C438.3 382.3 461.7 401.7 484.8 401.5C508 401.3 531 381.7 554 370.8C577 360 600 358 623 367.8C646 377.7 669 399.3 692.2 408C715.3 416.7 738.7 412.3 761.8 400.2C785 388 808 368 831 359.5C854 351 877 354 888.5 355.5L900 357L900 601L888.5 601C877 601 854 601 831 601C808 601 785 601 761.8 601C738.7 601 715.3 601 692.2 601C669 601 646 601 623 601C600 601 577 601 554 601C531 601 508 601 484.8 601C461.7 601 438.3 601 415.2 601C392 601 369 601 346 601C323 601 300 601 277 601C254 601 231 601 207.8 601C184.7 601 161.3 601 138.2 601C115 601 92 601 69 601C46 601 23 601 11.5 601L0 601Z" fill="#2f2f2f"></path><path d="M0 414L11.5 411.7C23 409.3 46 404.7 69 406.3C92 408 115 416 138.2 418.7C161.3 421.3 184.7 418.7 207.8 410.3C231 402 254 388 277 389.3C300 390.7 323 407.3 346 411.5C369 415.7 392 407.3 415.2 400C438.3 392.7 461.7 386.3 484.8 380.7C508 375 531 370 554 376.7C577 383.3 600 401.7 623 409.3C646 417 669 414 692.2 415.5C715.3 417 738.7 423 761.8 416C785 409 808 389 831 383.7C854 378.3 877 387.7 888.5 392.3L900 397L900 601L888.5 601C877 601 854 601 831 601C808 601 785 601 761.8 601C738.7 601 715.3 601 692.2 601C669 601 646 601 623 601C600 601 577 601 554 601C531 601 508 601 484.8 601C461.7 601 438.3 601 415.2 601C392 601 369 601 346 601C323 601 300 601 277 601C254 601 231 601 207.8 601C184.7 601 161.3 601 138.2 601C115 601 92 601 69 601C46 601 23 601 11.5 601L0 601Z" fill="#2c2c2c"></path><path d="M0 384L11.5 384.8C23 385.7 46 387.3 69 396.2C92 405 115 421 138.2 427.2C161.3 433.3 184.7 429.7 207.8 428C231 426.3 254 426.7 277 424C300 421.3 323 415.7 346 419.3C369 423 392 436 415.2 437.7C438.3 439.3 461.7 429.7 484.8 425.7C508 421.7 531 423.3 554 417.8C577 412.3 600 399.7 623 398C646 396.3 669 405.7 692.2 415.5C715.3 425.3 738.7 435.7 761.8 441.5C785 447.3 808 448.7 831 438.3C854 428 877 406 888.5 395L900 384L900 601L888.5 601C877 601 854 601 831 601C808 601 785 601 761.8 601C738.7 601 715.3 601 692.2 601C669 601 646 601 623 601C600 601 577 601 554 601C531 601 508 601 484.8 601C461.7 601 438.3 601 415.2 601C392 601 369 601 346 601C323 601 300 601 277 601C254 601 231 601 207.8 601C184.7 601 161.3 601 138.2 601C115 601 92 601 69 601C46 601 23 601 11.5 601L0 601Z" fill="#282828"></path><path d="M0 408L11.5 413.7C23 419.3 46 430.7 69 437.8C92 445 115 448 138.2 449.8C161.3 451.7 184.7 452.3 207.8 446.8C231 441.3 254 429.7 277 429.5C300 429.3 323 440.7 346 441.2C369 441.7 392 431.3 415.2 424.5C438.3 417.7 461.7 414.3 484.8 417.2C508 420 531 429 554 438.3C577 447.7 600 457.3 623 460C646 462.7 669 458.3 692.2 453.8C715.3 449.3 738.7 444.7 761.8 436.5C785 428.3 808 416.7 831 412C854 407.3 877 409.7 888.5 410.8L900 412L900 601L888.5 601C877 601 854 601 831 601C808 601 785 601 761.8 601C738.7 601 715.3 601 692.2 601C669 601 646 601 623 601C600 601 577 601 554 601C531 601 508 601 484.8 601C461.7 601 438.3 601 415.2 601C392 601 369 601 346 601C323 601 300 601 277 601C254 601 231 601 207.8 601C184.7 601 161.3 601 138.2 601C115 601 92 601 69 601C46 601 23 601 11.5 601L0 601Z" fill="#252525"></path><path d="M0 430L11.5 431.7C23 433.3 46 436.7 69 436.3C92 436 115 432 138.2 437.8C161.3 443.7 184.7 459.3 207.8 468.7C231 478 254 481 277 474.5C300 468 323 452 346 442.2C369 432.3 392 428.7 415.2 427C438.3 425.3 461.7 425.7 484.8 429.2C508 432.7 531 439.3 554 443.7C577 448 600 450 623 447.5C646 445 669 438 692.2 441.3C715.3 444.7 738.7 458.3 761.8 458C785 457.7 808 443.3 831 438.2C854 433 877 437 888.5 439L900 441L900 601L888.5 601C877 601 854 601 831 601C808 601 785 601 761.8 601C738.7 601 715.3 601 692.2 601C669 601 646 601 623 601C600 601 577 601 554 601C531 601 508 601 484.8 601C461.7 601 438.3 601 415.2 601C392 601 369 601 346 601C323 601 300 601 277 601C254 601 231 601 207.8 601C184.7 601 161.3 601 138.2 601C115 601 92 601 69 601C46 601 23 601 11.5 601L0 601Z" fill="#222222"></path><path d="M0 473L11.5 469.5C23 466 46 459 69 462.8C92 466.7 115 481.3 138.2 480.2C161.3 479 184.7 462 207.8 460C231 458 254 471 277 474.2C300 477.3 323 470.7 346 472.5C369 474.3 392 484.7 415.2 482.5C438.3 480.3 461.7 465.7 484.8 457C508 448.3 531 445.7 554 453.8C577 462 600 481 623 487.8C646 494.7 669 489.3 692.2 481.2C715.3 473 738.7 462 761.8 460.7C785 459.3 808 467.7 831 471.2C854 474.7 877 473.3 888.5 472.7L900 472L900 601L888.5 601C877 601 854 601 831 601C808 601 785 601 761.8 601C738.7 601 715.3 601 692.2 601C669 601 646 601 623 601C600 601 577 601 554 601C531 601 508 601 484.8 601C461.7 601 438.3 601 415.2 601C392 601 369 601 346 601C323 601 300 601 277 601C254 601 231 601 207.8 601C184.7 601 161.3 601 138.2 601C115 601 92 601 69 601C46 601 23 601 11.5 601L0 601Z" fill="#1f1f1f"></path><path d="M0 503L11.5 501.3C23 499.7 46 496.3 69 491.3C92 486.3 115 479.7 138.2 479.7C161.3 479.7 184.7 486.3 207.8 490.2C231 494 254 495 277 494C300 493 323 490 346 487.3C369 484.7 392 482.3 415.2 486.7C438.3 491 461.7 502 484.8 502.7C508 503.3 531 493.7 554 492.5C577 491.3 600 498.7 623 496.8C646 495 669 484 692.2 483.5C715.3 483 738.7 493 761.8 492.3C785 491.7 808 480.3 831 481.7C854 483 877 497 888.5 504L900 511L900 601L888.5 601C877 601 854 601 831 601C808 601 785 601 761.8 601C738.7 601 715.3 601 692.2 601C669 601 646 601 623 601C600 601 577 601 554 601C531 601 508 601 484.8 601C461.7 601 438.3 601 415.2 601C392 601 369 601 346 601C323 601 300 601 277 601C254 601 231 601 207.8 601C184.7 601 161.3 601 138.2 601C115 601 92 601 69 601C46 601 23 601 11.5 601L0 601Z" fill="#1b1b1b"></path><path d="M0 490L11.5 494.2C23 498.3 46 506.7 69 507.7C92 508.7 115 502.3 138.2 502C161.3 501.7 184.7 507.3 207.8 509.5C231 511.7 254 510.3 277 512.7C300 515 323 521 346 517C369 513 392 499 415.2 492.2C438.3 485.3 461.7 485.7 484.8 489.8C508 494 531 502 554 505.8C577 509.7 600 509.3 623 509.8C646 510.3 669 511.7 692.2 507.5C715.3 503.3 738.7 493.7 761.8 491.2C785 488.7 808 493.3 831 499.5C854 505.7 877 513.3 888.5 517.2L900 521L900 601L888.5 601C877 601 854 601 831 601C808 601 785 601 761.8 601C738.7 601 715.3 601 692.2 601C669 601 646 601 623 601C600 601 577 601 554 601C531 601 508 601 484.8 601C461.7 601 438.3 601 415.2 601C392 601 369 601 346 601C323 601 300 601 277 601C254 601 231 601 207.8 601C184.7 601 161.3 601 138.2 601C115 601 92 601 69 601C46 601 23 601 11.5 601L0 601Z" fill="#181818"></path><path d="M0 506L11.5 511C23 516 46 526 69 531.7C92 537.3 115 538.7 138.2 538.2C161.3 537.7 184.7 535.3 207.8 532.8C231 530.3 254 527.7 277 525C300 522.3 323 519.7 346 517.2C369 514.7 392 512.3 415.2 511.5C438.3 510.7 461.7 511.3 484.8 513.3C508 515.3 531 518.7 554 523.8C577 529 600 536 623 536.2C646 536.3 669 529.7 692.2 524.2C715.3 518.7 738.7 514.3 761.8 515.3C785 516.3 808 522.7 831 524.2C854 525.7 877 522.3 888.5 520.7L900 519L900 601L888.5 601C877 601 854 601 831 601C808 601 785 601 761.8 601C738.7 601 715.3 601 692.2 601C669 601 646 601 623 601C600 601 577 601 554 601C531 601 508 601 484.8 601C461.7 601 438.3 601 415.2 601C392 601 369 601 346 601C323 601 300 601 277 601C254 601 231 601 207.8 601C184.7 601 161.3 601 138.2 601C115 601 92 601 69 601C46 601 23 601 11.5 601L0 601Z" fill="#151515"></path><path d="M0 530L11.5 531.7C23 533.3 46 536.7 69 539.7C92 542.7 115 545.3 138.2 543.8C161.3 542.3 184.7 536.7 207.8 534C231 531.3 254 531.7 277 531.7C300 531.7 323 531.3 346 535.5C369 539.7 392 548.3 415.2 547.8C438.3 547.3 461.7 537.7 484.8 537.3C508 537 531 546 554 548.7C577 551.3 600 547.7 623 543.7C646 539.7 669 535.3 692.2 537.3C715.3 539.3 738.7 547.7 761.8 548.8C785 550 808 544 831 543.8C854 543.7 877 549.3 888.5 552.2L900 555L900 601L888.5 601C877 601 854 601 831 601C808 601 785 601 761.8 601C738.7 601 715.3 601 692.2 601C669 601 646 601 623 601C600 601 577 601 554 601C531 601 508 601 484.8 601C461.7 601 438.3 601 415.2 601C392 601 369 601 346 601C323 601 300 601 277 601C254 601 231 601 207.8 601C184.7 601 161.3 601 138.2 601C115 601 92 601 69 601C46 601 23 601 11.5 601L0 601Z" fill="#121212"></path><path d="M0 554L11.5 556C23 558 46 562 69 562.7C92 563.3 115 560.7 138.2 558.3C161.3 556 184.7 554 207.8 554.8C231 555.7 254 559.3 277 561.7C300 564 323 565 346 562.2C369 559.3 392 552.7 415.2 551.7C438.3 550.7 461.7 555.3 484.8 558.5C508 561.7 531 563.3 554 561.3C577 559.3 600 553.7 623 555C646 556.3 669 564.7 692.2 568C715.3 571.3 738.7 569.7 761.8 567C785 564.3 808 560.7 831 557.3C854 554 877 551 888.5 549.5L900 548L900 601L888.5 601C877 601 854 601 831 601C808 601 785 601 761.8 601C738.7 601 715.3 601 692.2 601C669 601 646 601 623 601C600 601 577 601 554 601C531 601 508 601 484.8 601C461.7 601 438.3 601 415.2 601C392 601 369 601 346 601C323 601 300 601 277 601C254 601 231 601 207.8 601C184.7 601 161.3 601 138.2 601C115 601 92 601 69 601C46 601 23 601 11.5 601L0 601Z" fill="#0d0d0d"></path><path d="M0 587L11.5 584.7C23 582.3 46 577.7 69 575C92 572.3 115 571.7 138.2 571.3C161.3 571 184.7 571 207.8 572.3C231 573.7 254 576.3 277 576.8C300 577.3 323 575.7 346 575.7C369 575.7 392 577.3 415.2 578.3C438.3 579.3 461.7 579.7 484.8 580C508 580.3 531 580.7 554 580C577 579.3 600 577.7 623 575.5C646 573.3 669 570.7 692.2 571.8C715.3 573 738.7 578 761.8 579.7C785 581.3 808 579.7 831 577.8C854 576 877 574 888.5 573L900 572L900 601L888.5 601C877 601 854 601 831 601C808 601 785 601 761.8 601C738.7 601 715.3 601 692.2 601C669 601 646 601 623 601C600 601 577 601 554 601C531 601 508 601 484.8 601C461.7 601 438.3 601 415.2 601C392 601 369 601 346 601C323 601 300 601 277 601C254 601 231 601 207.8 601C184.7 601 161.3 601 138.2 601C115 601 92 601 69 601C46 601 23 601 11.5 601L0 601Z" fill="#080808"></path></svg>